<svg width="163" height="37" viewBox="0 0 163 37" fill="none" xmlns="http://www.w3.org/2000/svg">
<rect width="37" height="37" rx="18.5" transform="matrix(-1 0 0 1 37 0)" fill="#25388C"/>
<path opacity="0.5" d="M18.5 14.9322V27.9482C24.3804 24.7107 29.3357 26.825 30.3929 28.0143V14.9322C26.2304 12.5536 19.5792 12.928 18.5 14.9322Z" fill="#DBE5FF"/>
<path d="M18.5 14.9321V27.9482C22.2661 23.0589 27.0232 24.2482 28.5429 24.5124V11.5625C25.0411 10.4392 19.5792 12.9279 18.5 14.9321Z" fill="#F0F4FF"/>
<path d="M18.5 14.7832V27.75C20.5271 23.0767 25.8891 22.6159 26.9571 22.6817V8.99086C24.4462 8.83289 19.0231 12.3478 18.5 14.7832Z" fill="url(#paint0_linear_100029_1233)"/>
<path opacity="0.5" d="M18.5 14.9322V27.9482C12.6196 24.7107 7.66429 26.825 6.60714 28.0143V14.9322C10.7696 12.5536 17.4208 12.928 18.5 14.9322Z" fill="#DBE5FF"/>
<path d="M18.5 14.9321V27.9482C14.7339 23.0589 9.97679 24.2482 8.45714 24.5124V11.5625C11.9589 10.4392 17.4208 12.9279 18.5 14.9321Z" fill="#F0F4FF"/>
<path d="M18.5 14.7832V27.75C16.4729 23.0767 11.1109 22.6159 10.0429 22.6817V8.99086C12.5538 8.83289 17.9769 12.3478 18.5 14.7832Z" fill="url(#paint1_linear_100029_1233)"/>
<path d="M44.132 10.352H52.53C53.2753 10.352 53.9427 10.4647 54.532 10.69C55.1387 10.9153 55.65 11.2273 56.066 11.626C56.482 12.0247 56.794 12.5187 57.002 13.108C57.2273 13.68 57.34 14.3127 57.34 15.006C57.34 15.6993 57.2447 16.2887 57.054 16.774C56.8807 17.242 56.638 17.632 56.326 17.944C56.0313 18.256 55.6847 18.49 55.286 18.646C54.9047 18.802 54.506 18.8887 54.09 18.906V19.062C54.4887 19.062 54.9133 19.14 55.364 19.296C55.832 19.452 56.2567 19.7033 56.638 20.05C57.0367 20.3793 57.366 20.8127 57.626 21.35C57.886 21.87 58.016 22.52 58.016 23.3C58.016 24.028 57.8947 24.7127 57.652 25.354C57.4267 25.978 57.106 26.524 56.69 26.992C56.274 27.46 55.78 27.8327 55.208 28.11C54.636 28.37 54.012 28.5 53.336 28.5H44.132V10.352ZM47.564 25.588H52.348C53.0067 25.588 53.518 25.4233 53.882 25.094C54.246 24.7473 54.428 24.2533 54.428 23.612V22.728C54.428 22.0867 54.246 21.5927 53.882 21.246C53.518 20.8993 53.0067 20.726 52.348 20.726H47.564V25.588ZM47.564 17.918H51.802C52.426 17.918 52.9113 17.7533 53.258 17.424C53.6047 17.0773 53.778 16.6007 53.778 15.994V15.188C53.778 14.5813 53.6047 14.1133 53.258 13.784C52.9113 13.4373 52.426 13.264 51.802 13.264H47.564V17.918ZM66.5462 28.812C65.5756 28.812 64.7002 28.6473 63.9202 28.318C63.1576 27.9887 62.4989 27.512 61.9442 26.888C61.4069 26.264 60.9909 25.5187 60.6962 24.652C60.4016 23.768 60.2542 22.78 60.2542 21.688C60.2542 20.596 60.4016 19.6167 60.6962 18.75C60.9909 17.8833 61.4069 17.1467 61.9442 16.54C62.4989 15.916 63.1576 15.4393 63.9202 15.11C64.7002 14.7807 65.5756 14.616 66.5462 14.616C67.5169 14.616 68.3922 14.7807 69.1722 15.11C69.9522 15.4393 70.6109 15.916 71.1482 16.54C71.7029 17.1467 72.1276 17.8833 72.4222 18.75C72.7169 19.6167 72.8642 20.596 72.8642 21.688C72.8642 22.78 72.7169 23.768 72.4222 24.652C72.1276 25.5187 71.7029 26.264 71.1482 26.888C70.6109 27.512 69.9522 27.9887 69.1722 28.318C68.3922 28.6473 67.5169 28.812 66.5462 28.812ZM66.5462 26.134C67.4302 26.134 68.1236 25.8653 68.6262 25.328C69.1289 24.7907 69.3802 24.002 69.3802 22.962V20.44C69.3802 19.4173 69.1289 18.6373 68.6262 18.1C68.1236 17.5627 67.4302 17.294 66.5462 17.294C65.6796 17.294 64.9949 17.5627 64.4922 18.1C63.9896 18.6373 63.7382 19.4173 63.7382 20.44V22.962C63.7382 24.002 63.9896 24.7907 64.4922 25.328C64.9949 25.8653 65.6796 26.134 66.5462 26.134ZM81.1966 28.812C80.226 28.812 79.3506 28.6473 78.5706 28.318C77.808 27.9887 77.1493 27.512 76.5946 26.888C76.0573 26.264 75.6413 25.5187 75.3466 24.652C75.052 23.768 74.9046 22.78 74.9046 21.688C74.9046 20.596 75.052 19.6167 75.3466 18.75C75.6413 17.8833 76.0573 17.1467 76.5946 16.54C77.1493 15.916 77.808 15.4393 78.5706 15.11C79.3506 14.7807 80.226 14.616 81.1966 14.616C82.1673 14.616 83.0426 14.7807 83.8226 15.11C84.6026 15.4393 85.2613 15.916 85.7986 16.54C86.3533 17.1467 86.778 17.8833 87.0726 18.75C87.3673 19.6167 87.5146 20.596 87.5146 21.688C87.5146 22.78 87.3673 23.768 87.0726 24.652C86.778 25.5187 86.3533 26.264 85.7986 26.888C85.2613 27.512 84.6026 27.9887 83.8226 28.318C83.0426 28.6473 82.1673 28.812 81.1966 28.812ZM81.1966 26.134C82.0806 26.134 82.774 25.8653 83.2766 25.328C83.7793 24.7907 84.0306 24.002 84.0306 22.962V20.44C84.0306 19.4173 83.7793 18.6373 83.2766 18.1C82.774 17.5627 82.0806 17.294 81.1966 17.294C80.33 17.294 79.6453 17.5627 79.1426 18.1C78.64 18.6373 78.3886 19.4173 78.3886 20.44V22.962C78.3886 24.002 78.64 24.7907 79.1426 25.328C79.6453 25.8653 80.33 26.134 81.1966 26.134ZM90.465 9.26H93.793V20.856H93.923L95.717 18.412L98.759 14.928H102.529L97.849 20.18L103.023 28.5H99.071L95.587 22.416L93.793 24.366V28.5H90.465V9.26ZM107.826 28.5L103.614 10.352H107.046L108.84 19.062L109.958 24.626H110.036L111.336 19.062L113.416 10.352H117.212L119.292 19.062L120.566 24.626H120.644L121.788 19.062L123.634 10.352H126.91L122.568 28.5H118.694L116.38 18.906L115.262 14.122H115.21L114.04 18.906L111.726 28.5H107.826ZM131.205 12.952C130.512 12.952 130.009 12.796 129.697 12.484C129.403 12.172 129.255 11.7733 129.255 11.288V10.768C129.255 10.2827 129.403 9.884 129.697 9.572C130.009 9.26 130.512 9.104 131.205 9.104C131.881 9.104 132.375 9.26 132.687 9.572C132.999 9.884 133.155 10.2827 133.155 10.768V11.288C133.155 11.7733 132.999 12.172 132.687 12.484C132.375 12.796 131.881 12.952 131.205 12.952ZM129.541 14.928H132.869V28.5H129.541V14.928ZM141.173 28.812C139.873 28.812 138.781 28.5953 137.897 28.162C137.013 27.7113 136.233 27.096 135.557 26.316L137.585 24.34C138.087 24.912 138.633 25.3627 139.223 25.692C139.829 26.0213 140.523 26.186 141.303 26.186C142.1 26.186 142.672 26.0473 143.019 25.77C143.383 25.4927 143.565 25.1113 143.565 24.626C143.565 24.2273 143.435 23.9153 143.175 23.69C142.932 23.4473 142.507 23.2827 141.901 23.196L140.549 23.014C139.075 22.8233 137.949 22.4073 137.169 21.766C136.406 21.1073 136.025 20.154 136.025 18.906C136.025 18.2473 136.146 17.658 136.389 17.138C136.631 16.6007 136.978 16.15 137.429 15.786C137.879 15.4047 138.417 15.1187 139.041 14.928C139.682 14.72 140.393 14.616 141.173 14.616C141.831 14.616 142.412 14.668 142.915 14.772C143.435 14.8587 143.903 14.9973 144.319 15.188C144.735 15.3613 145.116 15.5867 145.463 15.864C145.809 16.124 146.147 16.4187 146.477 16.748L144.527 18.698C144.128 18.282 143.651 17.9353 143.097 17.658C142.542 17.3807 141.935 17.242 141.277 17.242C140.549 17.242 140.02 17.372 139.691 17.632C139.379 17.892 139.223 18.23 139.223 18.646C139.223 19.0967 139.353 19.4433 139.613 19.686C139.89 19.9113 140.349 20.076 140.991 20.18L142.369 20.362C145.298 20.778 146.763 22.1127 146.763 24.366C146.763 25.0247 146.624 25.6313 146.347 26.186C146.087 26.7233 145.714 27.1913 145.229 27.59C144.743 27.9713 144.154 28.2747 143.461 28.5C142.785 28.708 142.022 28.812 141.173 28.812ZM155.187 28.812C154.182 28.812 153.281 28.6473 152.483 28.318C151.703 27.9713 151.036 27.4947 150.481 26.888C149.944 26.264 149.528 25.5187 149.233 24.652C148.939 23.768 148.791 22.78 148.791 21.688C148.791 20.6133 148.93 19.6427 149.207 18.776C149.502 17.9093 149.918 17.1727 150.455 16.566C150.993 15.942 151.651 15.4653 152.431 15.136C153.211 14.7893 154.095 14.616 155.083 14.616C156.141 14.616 157.059 14.798 157.839 15.162C158.619 15.526 159.261 16.02 159.763 16.644C160.266 17.268 160.639 17.996 160.881 18.828C161.141 19.6427 161.271 20.518 161.271 21.454V22.546H152.249V22.884C152.249 23.872 152.527 24.6693 153.081 25.276C153.636 25.8653 154.459 26.16 155.551 26.16C156.383 26.16 157.059 25.9867 157.579 25.64C158.117 25.2933 158.593 24.8513 159.009 24.314L160.803 26.316C160.249 27.096 159.486 27.7113 158.515 28.162C157.562 28.5953 156.453 28.812 155.187 28.812ZM155.135 17.112C154.251 17.112 153.549 17.4067 153.029 17.996C152.509 18.5853 152.249 19.348 152.249 20.284V20.492H157.813V20.258C157.813 19.322 157.579 18.568 157.111 17.996C156.661 17.4067 156.002 17.112 155.135 17.112Z" fill="#25388C"/>
<defs>
<linearGradient id="paint0_linear_100029_1233" x1="18.5" y1="20.1518" x2="26.9571" y2="20.1518" gradientUnits="userSpaceOnUse">
<stop stop-color="#FAFBFF" stop-opacity="0.49"/>
<stop offset="1" stop-color="#FAFBFF"/>
</linearGradient>
<linearGradient id="paint1_linear_100029_1233" x1="18.5" y1="20.1518" x2="10.0429" y2="20.1518" gradientUnits="userSpaceOnUse">
<stop stop-color="#FAFBFF" stop-opacity="0.49"/>
<stop offset="1" stop-color="#FAFBFF"/>
</linearGradient>
</defs>
</svg>
